<?xml version="1.0" encoding="utf-8"?>
<!-- Generator: Adobe Illustrator 24.1.1, SVG Export Plug-In . SVG Version: 6.00 Build 0)  -->
<svg version="1.1" id="Capa_1" xmlns="http://www.w3.org/2000/svg" xmlns:xlink="http://www.w3.org/1999/xlink" x="0px" y="0px"
	 viewBox="0 0 78 87" style="enable-background:new 0 0 78 87;" xml:space="preserve">
<style type="text/css">
	.st0{fill:#16DF7E;}
</style>
<path class="st0" d="M77.7,56.1c-0.7-3.8-1.3-7.6-2-11.4c-1.3-7.3-2.5-14.7-3.8-22c-1.2-7.1-2.4-14.2-3.6-21.4
	c-0.1-0.5-0.3-0.7-0.8-0.8c-0.9,0-1.9,0-2.8-0.2c-1-0.2-1.5,0.2-2.1,0.9c-6.3,8.1-12.5,16.2-18.8,24.3c-0.4,0.5-0.8,0.6-1.3,0.6
	c-2.3,0-4.5-0.1-6.8,0c-0.9,0-1.5-0.3-2-1C27.7,17.4,21.6,9.6,15.5,1.7c-0.8-1-1.4-1.8-2.4-1.3c-1.1,0.1-1.8,0.2-2.6,0.2
	c-0.7,0-0.9,0.3-1,0.9C9,4.7,8.4,7.9,7.9,11.1C6.4,19.7,5,28.3,3.5,36.9c-1.1,6.3-2.2,12.6-3.2,18.9c-0.1,0.6,0,1,0.6,1.4
	c2.7,2.1,5.4,4.2,8.1,6.3c9.7,7.6,19.5,15.3,29.2,22.9c0.7,0.5,1.1,0.5,1.7,0c7.3-5.8,14.6-11.5,21.9-17.2c5.1-4,10.2-8,15.2-11.9
	C77.4,57.1,77.9,56.8,77.7,56.1z M49.3,26.5c2.8-3.5,5.4-7,8.2-10.4c0.3-0.4,0.5-0.9,1-1.1c-1.4,5.5-3.3,10.9-5.1,16.5
	c-1.4-1.2-2.7-2.3-4-3.4C48.8,27.6,48.8,27.2,49.3,26.5z M20,15.4c2.9,3.8,5.9,7.5,8.8,11.3c0.3,0.4,0.5,0.6,0,1
	c-1.4,1.1-2.8,2.4-4.3,3.7c-1.8-5.7-3.6-11.1-5.4-16.6C19.7,14.7,19.8,15.2,20,15.4z M33.9,77c-3.5-2.7-6.9-5.4-10.4-8.1
	c-5.8-4.6-11.6-9.2-17.5-13.7c-0.5-0.4-0.7-0.8-0.5-1.4c1.3-7.8,2.7-15.5,4-23.3c1-6,2.1-12.1,3.1-18.1c0.1-0.3,0-0.6,0.3-0.8
	C20,33.4,27,55.1,34.1,76.9C34,76.9,34,77,33.9,77z M39.3,75c-0.1,0.3-0.1,0.6-0.5,0.8c-1.8-5.5-3.5-10.9-5.3-16.3
	c-2.4-7.4-4.8-14.8-7.2-22.2c-0.2-0.7-0.1-1,0.4-1.4c1.8-1.4,3.5-2.9,5.2-4.4c0.4-0.3,0.7-0.5,1.2-0.5c3.8,0,7.6,0,11.4,0
	c0.4,0,0.8,0,1.1,0.3c1.8,1.6,3.7,3.1,5.5,4.6c0.4,0.3,0.5,0.6,0.3,1.2C47.5,49.8,43.4,62.4,39.3,75z M71.8,55.3
	C63,62.1,54.2,69,45.4,75.9c-0.4,0.3-0.9,0.6-1.6,1C51,55,58,33.3,65,11.6c0.1,0,0.1,0,0.2,0c0.6,3.3,1.2,6.7,1.7,10
	c1.3,7.3,2.5,14.6,3.7,21.9c0.6,3.5,1.2,6.9,1.8,10.4C72.5,54.5,72.3,54.8,71.8,55.3z"/>
</svg>
